<svg width="49" height="40" viewBox="0 0 49 40" fill="none" xmlns="http://www.w3.org/2000/svg">
<path d="M13.485 36.4762C12.7305 35.9207 12.0406 35.282 11.4282 34.5721C9.33842 33.9727 7.34397 33.0789 5.50439 31.9176C-2.84566 26.7219 0.543466 20.5923 1.43991 19.2799C2.33635 17.9675 3.26913 15.7639 2.05318 12.5222C0.83723 9.28056 4.25664 -0.124325 12.8769 0.00155671C15.8405 0.159994 18.7609 0.671551 22.0308 2.983C24.8514 1.36846 28.0331 0.507687 30.7908 0.560427C36.5529 0.463412 42.4451 3.02446 43.7052 7.88848C44.9653 12.7525 46.4979 15.4249 47.4043 17.6445C48.3107 19.8642 49.3 26.3104 43.3684 29.7561C41.7046 30.7307 39.9338 31.5086 38.0914 32.0743C34.4936 39.0533 28.2401 40.0052 25.1833 39.999H25.0736C19.8907 40.0003 15.7198 38.1214 13.485 36.4762Z" fill="white"/>
<path style="mix-blend-mode:multiply" d="M30.7905 0.560104C36.5527 0.462871 42.4449 3.02392 43.705 7.88837C44.9651 12.7528 46.4977 15.4248 47.4041 17.6446C48.3105 19.8645 49.2997 26.3103 43.3682 29.7568C37.4366 33.2034 26.2305 36.6975 17.414 23.3927C8.4295 9.83368 21.8471 0.389078 30.7905 0.560104Z" fill="url(#paint0_linear_1_4)"/>
<path style="mix-blend-mode:multiply" d="M12.8767 0.00124727C17.924 0.271025 22.8505 1.5663 29.5807 11.0333C36.311 20.5002 29.6361 31.2803 25.4691 33.2974C21.3021 35.3145 13.8526 37.1129 5.50403 31.9173C-2.84451 26.7216 0.543103 20.592 1.43954 19.2796C2.33598 17.9672 3.26855 15.7636 2.0526 12.5219C0.836653 9.28025 4.25649 -0.124417 12.8767 0.00124727Z" fill="url(#paint1_linear_1_4)"/>
<path style="mix-blend-mode:multiply" d="M25.183 39.9997C29.0375 40.0077 37.9742 38.4913 40.2607 25.2917C41.7938 11.6327 36.1132 9.36315 31.1103 9.91551C23.788 10.8355 25.1374 7.02891 17.9479 6.96835C11.6116 6.99223 7.59775 15.0044 7.68991 23.0632C7.78206 31.122 11.2335 34.819 13.4841 36.4761C15.7347 38.1332 19.9493 40.0264 25.183 39.9997Z" fill="url(#paint2_linear_1_4)"/>
<path d="M31.7884 32.0887H13.4009V21.4539H16.8621V28.6161H30.9231V21.4539H34.3842V32.0887H31.7884Z" fill="white"/>
<path d="M30.4904 19.0664L24.0008 12.1213L17.5111 19.0664H12.3193L15.5642 15.6902V12.3383H18.7856L24.0008 6.91235L35.6822 19.0664H30.4904Z" fill="white"/>
<path d="M23.689 27.3961C25.6556 27.6305 29.1857 24.1169 29.1007 22.2413C29.0157 20.3656 27.7357 20.4646 26.5103 21.1127C25.2848 21.7608 24.8781 22.5799 23.689 22.442C22.4998 22.3042 21.2662 19.7881 20.1054 19.7868C18.9446 19.7855 18.7384 21.2672 19.0008 22.6202C19.2632 23.9732 21.7226 27.1617 23.689 27.3961Z" fill="white"/>
<path d="M22.3066 20.0446C22.8443 20.0446 23.2801 19.6074 23.2801 19.068C23.2801 18.5286 22.8443 18.0913 22.3066 18.0913C21.769 18.0913 21.3332 18.5286 21.3332 19.068C21.3332 19.6074 21.769 20.0446 22.3066 20.0446Z" fill="white"/>
<path d="M26.4167 20.6958C26.9543 20.6958 27.3901 20.2585 27.3901 19.7191C27.3901 19.1797 26.9543 18.7424 26.4167 18.7424C25.8791 18.7424 25.4432 19.1797 25.4432 19.7191C25.4432 20.2585 25.8791 20.6958 26.4167 20.6958Z" fill="white"/>
<path d="M24.2536 21.7809C24.6717 21.7809 25.0107 21.4408 25.0107 21.0213C25.0107 20.6018 24.6717 20.2617 24.2536 20.2617C23.8354 20.2617 23.4965 20.6018 23.4965 21.0213C23.4965 21.4408 23.8354 21.7809 24.2536 21.7809Z" fill="white"/>
<path d="M23.6889 27.3959C23.165 27.3091 22.6682 27.1021 22.2371 26.791C22.373 25.7232 22.4385 24.0935 21.79 23.1311C20.7648 21.6097 20.6251 20.6098 20.9578 20.5204C21.0856 20.4861 21.3437 20.6111 21.6392 20.8008C22.3223 21.517 23.0126 22.3635 23.6886 22.4425C24.486 22.5349 24.9316 22.1972 25.5083 21.7697C26.0334 21.463 26.596 21.1741 26.9095 21.4778C27.4057 21.9578 25.7829 22.7318 25.5501 23.738C25.3686 24.5226 25.472 25.7998 25.7508 26.7348C25.0941 27.1483 24.4373 27.4076 23.882 27.4076C23.8175 27.4076 23.753 27.4036 23.6889 27.3959Z" fill="url(#paint3_linear_1_4)"/>
<defs>
<linearGradient id="paint0_linear_1_4" x1="46.4744" y1="15.5663" x2="14.4425" y2="15.7763" gradientUnits="userSpaceOnUse">
<stop stop-color="#35BCE7"/>
<stop offset="1" stop-color="#BFE27D"/>
</linearGradient>
<linearGradient id="paint1_linear_1_4" x1="16.2248" y1="0" x2="16.2248" y2="35.3144" gradientUnits="userSpaceOnUse">
<stop stop-color="#FFD201"/>
<stop offset="1" stop-color="#FF6B38"/>
</linearGradient>
<linearGradient id="paint2_linear_1_4" x1="36.5106" y1="10.5358" x2="18.8251" y2="38.2821" gradientUnits="userSpaceOnUse">
<stop stop-color="#8F58B7"/>
<stop offset="1" stop-color="#FB81B6"/>
</linearGradient>
<linearGradient id="paint3_linear_1_4" x1="21.9016" y1="24.7608" x2="25.8117" y2="24.7831" gradientUnits="userSpaceOnUse">
<stop stop-color="#FFD201"/>
<stop offset="1" stop-color="#FF6B38"/>
</linearGradient>
</defs>
</svg>
